<?xml version="1.0" standalone="no"?>
<!DOCTYPE svg PUBLIC "-//W3C//DTD SVG 20010904//EN"
 "http://www.w3.org/TR/2001/REC-SVG-20010904/DTD/svg10.dtd">
<svg version="1.0" xmlns="http://www.w3.org/2000/svg"
 width="1078.000000pt" height="1078.000000pt" viewBox="0 0 1078.000000 1078.000000"
 preserveAspectRatio="xMidYMid meet">
<metadata>
Created by potrace 1.11, written by Peter Selinger 2001-2013
</metadata>
<g transform="translate(0.000000,1078.000000) scale(0.100000,-0.100000)"
fill="#000000" stroke="none">
<path d="M4980 10639 c-290 -25 -590 -74 -855 -139 -1163 -287 -2200 -970
-2930 -1931 -402 -529 -706 -1146 -885 -1797 -81 -292 -144 -662 -170 -996
-13 -166 -13 -606 0 -772 72 -910 357 -1752 847 -2498 329 -502 746 -948 1224
-1311 723 -550 1612 -914 2499 -1024 259 -32 403 -41 680 -41 385 0 683 29
1040 100 1254 252 2376 956 3155 1981 550 724 914 1612 1024 2499 32 259 41
403 41 680 0 385 -29 683 -100 1040 -177 883 -579 1704 -1171 2395 -132 154
-400 422 -554 554 -731 627 -1613 1041 -2554 1201 -294 50 -440 61 -821 65
-201 2 -412 -1 -470 -6z m-1855 -992 c43 -24 77 -71 181 -254 162 -284 307
-533 309 -531 1 2 53 91 114 198 123 213 146 243 206 271 146 68 311 -60 293
-226 -6 -45 -12 -58 -199 -380 -51 -88 -110 -190 -131 -227 l-38 -68 132 -230
c73 -126 135 -230 138 -230 3 0 117 192 253 428 456 789 439 762 485 795 34
25 55 32 106 35 72 5 120 -14 173 -70 41 -42 53 -76 53 -145 0 -61 14 -34
-221 -438 -393 -678 -599 -1039 -597 -1045 2 -4 61 -108 133 -232 l129 -225
66 25 c91 35 247 79 354 99 70 13 144 17 316 17 205 0 236 -2 350 -27 101 -21
276 -75 360 -110 11 -5 43 43 130 195 63 111 123 215 133 232 l18 31 -326 565
c-180 311 -365 632 -413 713 -80 139 -85 152 -85 205 0 65 16 103 65 151 43
44 86 61 148 61 110 0 146 -34 281 -268 131 -227 359 -621 479 -829 51 -90 96
-163 99 -163 3 0 66 104 138 231 l133 230 -39 67 c-21 37 -82 144 -136 237
-205 354 -190 323 -190 395 0 80 24 132 83 177 73 56 171 55 245 -1 41 -31 53
-50 224 -344 l60 -103 125 218 c69 120 162 283 208 363 94 164 109 184 164
212 59 30 170 23 219 -15 67 -51 82 -82 82 -172 l0 -80 -66 -115 c-37 -63
-133 -229 -213 -368 -80 -139 -146 -254 -146 -257 0 -3 110 -5 245 -5 276 0
288 -2 347 -68 74 -82 76 -198 5 -279 -63 -72 -68 -73 -479 -73 l-366 0 -45
-77 c-25 -43 -85 -148 -135 -233 l-90 -155 696 -5 c690 -5 697 -5 737 -27 77
-41 115 -103 115 -188 0 -94 -63 -181 -147 -204 -25 -7 -313 -11 -845 -11
l-806 0 -103 -177 c-56 -98 -117 -202 -134 -232 l-32 -54 71 -57 c187 -151
367 -375 480 -598 73 -145 153 -400 171 -544 l7 -58 267 0 266 0 399 690 c219
379 407 701 419 716 27 35 112 74 162 74 42 0 117 -29 148 -58 46 -42 71 -131
56 -199 -5 -26 -143 -275 -345 -625 -185 -321 -338 -586 -341 -590 -2 -5 119
-8 269 -8 l273 1 174 305 c127 223 185 315 214 339 144 123 364 9 344 -179 -5
-54 -28 -100 -180 -358 -31 -53 -57 -99 -57 -102 0 -3 188 -6 418 -6 452 0
479 -3 532 -54 63 -60 65 -65 65 -161 0 -96 -2 -101 -65 -161 -53 -51 -80 -54
-532 -54 -230 0 -418 -3 -418 -6 0 -4 53 -97 117 -208 l118 -201 0 -71 c0 -61
-4 -76 -28 -113 -72 -109 -216 -130 -314 -46 -29 24 -87 116 -213 335 -96 166
-179 304 -185 306 -6 3 -128 3 -273 2 l-262 -3 321 -555 c176 -305 331 -576
345 -602 51 -100 22 -224 -64 -279 -90 -57 -193 -47 -266 25 -28 28 -165 257
-436 728 l-395 688 -265 0 -266 0 -22 -123 c-54 -291 -188 -581 -379 -817 -68
-84 -201 -216 -280 -277 l-51 -40 75 -129 c41 -71 102 -175 135 -231 l60 -103
807 0 c492 0 820 -4 841 -10 19 -5 52 -24 74 -42 121 -100 92 -296 -53 -361
-19 -9 -228 -13 -723 -17 l-696 -5 129 -223 c71 -122 129 -227 129 -232 0 -6
141 -10 372 -10 357 0 373 -1 415 -21 71 -34 123 -115 123 -191 0 -41 -29
-110 -58 -141 -60 -64 -76 -67 -347 -67 -135 0 -245 -2 -245 -5 0 -5 134 -239
384 -670 72 -125 58 -243 -37 -319 -33 -27 -48 -31 -111 -34 -80 -4 -131 13
-172 60 -12 12 -112 183 -224 378 -111 195 -205 358 -209 362 -3 4 -58 -83
-121 -194 -121 -211 -160 -259 -227 -277 -57 -16 -93 -13 -148 13 -60 28 -77
46 -106 111 -17 37 -20 60 -16 101 6 56 2 48 266 506 l101 177 -132 230 c-73
127 -136 231 -139 231 -5 0 -169 -282 -560 -960 -118 -206 -151 -250 -211
-281 -118 -60 -278 25 -301 161 -4 19 -3 51 2 72 5 20 153 285 329 590 176
304 359 621 407 705 l87 151 -44 74 c-24 40 -85 144 -134 230 -67 118 -93 156
-104 151 -85 -36 -259 -89 -360 -110 -114 -25 -145 -27 -350 -28 -194 0 -240
3 -335 22 -123 25 -238 58 -335 95 l-66 25 -129 -225 c-72 -124 -131 -228
-133 -232 -2 -6 204 -365 713 -1245 54 -93 102 -188 106 -209 16 -87 -35 -182
-123 -227 -44 -22 -124 -25 -171 -5 -70 29 -66 23 -617 979 -85 147 -157 267
-160 267 -3 0 -65 -104 -138 -231 l-133 -230 82 -142 c298 -518 283 -488 287
-547 10 -152 -143 -269 -282 -216 -64 25 -98 68 -221 283 -61 105 -113 188
-117 185 -3 -4 -95 -162 -203 -352 -109 -190 -208 -360 -222 -378 -40 -53 -94
-75 -178 -70 -60 3 -78 8 -108 31 -63 47 -81 84 -85 163 -5 81 -7 74 103 264
156 267 325 562 325 565 0 2 -116 5 -258 7 l-259 3 -41 29 c-102 70 -121 220
-39 313 63 72 68 73 478 73 l366 0 135 233 134 232 -696 5 c-763 5 -732 3
-791 67 -42 45 -59 87 -59 148 0 61 17 103 59 148 60 66 3 62 914 67 l828 5
130 225 c71 124 129 228 129 231 0 3 -28 28 -63 56 -264 215 -476 523 -582
846 -35 108 -75 284 -75 331 l0 26 -269 0 -268 0 -373 -647 c-206 -357 -391
-676 -413 -711 -69 -110 -174 -148 -279 -99 -105 47 -155 164 -114 262 12 28
622 1093 672 1173 l14 22 -272 0 -273 0 -177 -308 c-98 -170 -188 -318 -200
-329 -111 -101 -274 -70 -343 66 -13 26 -16 51 -13 100 5 61 11 76 92 216 49
83 101 173 118 202 l29 52 -438 3 -438 3 -48 28 c-29 17 -60 47 -78 75 -27 42
-29 54 -26 112 4 82 36 137 104 177 l48 28 437 5 437 5 -96 165 c-147 255
-143 246 -143 311 0 72 10 97 56 149 77 85 213 88 301 7 12 -11 102 -159 200
-328 l178 -309 272 0 272 0 -33 58 c-250 428 -633 1096 -647 1127 -36 78 -19
165 45 229 76 76 182 85 272 23 43 -30 74 -80 452 -734 l405 -703 269 0 268 0
0 26 c0 47 40 223 75 331 111 338 307 618 605 865 l44 36 -48 84 c-27 45 -87
149 -134 231 l-85 147 -806 0 c-537 0 -819 4 -844 11 -47 13 -115 72 -134 116
-18 44 -17 137 3 176 23 45 63 86 104 105 31 15 108 18 730 22 l696 5 -134
233 -135 232 -364 0 c-306 0 -370 2 -401 16 -141 59 -175 239 -66 348 53 53
72 56 339 56 135 0 245 2 245 5 0 2 -22 42 -49 87 -64 110 -317 550 -353 613
-22 40 -28 63 -28 115 0 79 25 129 88 177 40 30 49 33 115 33 56 0 81 -5 112
-23z"/>
<path d="M5230 6790 c-568 -60 -1071 -487 -1215 -1034 -70 -265 -71 -466 -4
-730 125 -490 548 -901 1044 -1014 480 -110 957 29 1311 382 231 232 354 484
406 831 19 126 20 151 9 250 -41 381 -166 650 -416 900 -263 264 -574 402
-940 419 -60 2 -148 1 -195 -4z"/>
</g>
</svg>
